<?xml version="1.0" encoding="utf-8"?>
<!-- Generator: Adobe Illustrator 24.2.3, SVG Export Plug-In . SVG Version: 6.00 Build 0)  -->
<svg version="1.1" id="Layer_1" xmlns="http://www.w3.org/2000/svg" xmlns:xlink="http://www.w3.org/1999/xlink" x="0px" y="0px"
	 viewBox="0 0 13 13" style="enable-background:new 0 0 13 13;" xml:space="preserve">
<style type="text/css">
	.st0{fill:none;}
	.st1{fill:none;stroke:#FF7200;}
	.st2{fill:#FFFFFF;}
	.st3{fill:#FF7200;}
</style>
<g id="레이어_면" transform="translate(-103 -408)">
	<g id="Rectangle_667" transform="translate(104 409)">
		<rect x="0" y="0" class="st0" width="11" height="11"/>
		<rect x="0.5" y="0.5" class="st1" width="10" height="10"/>
	</g>
	<g id="Rectangle_667_copy_2">
		<path class="st2" d="M115.5,420.5h-3v-3h3V420.5z M106.5,420.5h-3v-3h3V420.5z M115.5,411.5h-3v-3h3V411.5z M106.5,411.5h-3v-3h3
			V411.5z"/>
		<path class="st3" d="M115,420v-2h-2v2H115 M106,420v-2h-2v2H106 M115,411v-2h-2v2H115 M106,411v-2h-2v2H106 M116,421h-4v-4h4V421z
			 M107,421h-4v-4h4V421z M116,412h-4v-4h4V412z M107,412h-4v-4h4V412z"/>
	</g>
</g>
</svg>
